#!OML:ASF F:\VICON\USERDATA\INSTALL\rory3\rory3.ASF
:FULLY-SPECIFIED
:DEGREES
190
root 0.740116 17.9485 -0.702763 1.07658 -30.6232 2.19802
lowerback 1.43203 -1.66088 -4.73703
upperback -0.148375 -2.28073 2.49011
thorax -0.669367 -1.12181 5.27502
lowerneck -24.1483 1.29746 -10.339
upperneck 9.67934 4.19585 4.9461
head 6.48709 2.0722 3.77193
rclavicle -1.46107e-014 2.70347e-014
rhumerus -34.7375 -8.51818 -70.4889
rradius 38.7052
rwrist 14.0866
rhand -26.3249 12.017
rfingers 7.12502
rthumb 0.23198 -17.9626
lclavicle -1.46107e-014 2.70347e-014
lhumerus 41.2144 -3.64837 53.6626
lradius 103.861
lwrist -2.52362
lhand -36.2783 26.2564
lfingers 7.12502
lthumb -9.37836 56.0278
rfemur -10.4188 2.85035 10.0099
rtibia 24.613
rfoot -15.2624 -9.68293
rtoes 1.84712
lfemur -1.38599 1.31633 -24.1778
ltibia 14.2404
lfoot -10.1366 6.8304
ltoes -11.6504
191
root 0.738684 17.9486 -0.705274 1.10729 -30.5969 2.1803
lowerback 1.51145 -1.66996 -4.77029
upperback -0.17707 -2.29675 2.52253
thorax -0.7389 -1.12699 5.33147
lowerneck -24.1532 1.28569 -10.4176
upperneck 9.27691 4.18951 5.02902
head 6.35265 2.08475 3.80116
rclavicle 7.65321e-015 2.54444e-014
rhumerus -34.8169 -8.35828 -70.4723
rradius 38.7764
rwrist 14.0104
rhand -26.3782 12.0015
rfingers 7.12502
rthumb 0.180421 -17.9782
lclavicle 7.65321e-015 2.54444e-014
lhumerus 41.5787 -3.33263 53.5108
lradius 103.75
lwrist -2.49388
lhand -36.3951 26.0602
lfingers 7.12502
lthumb -9.491 55.8264
rfemur -10.4394 2.83492 10.0392
rtibia 24.6134
rfoot -15.291 -9.69496
rtoes 1.84461
lfemur -1.42626 1.3413 -24.1446
ltibia 14.2553
lfoot -10.1001 6.77171
ltoes -11.446
192
root 0.737553 17.9472 -0.707284 1.09319 -30.585 2.20737
lowerback 1.61261 -1.67643 -4.82133
upperback -0.175927 -2.31062 2.5061
thorax -0.791419 -1.13213 5.34711
lowerneck -24.3068 1.28618 -10.4325
upperneck 8.99513 4.18607 5.18059
head 6.28021 2.10514 3.84995
rclavicle 1.4064e-014 4.77083e-015
rhumerus -34.8928 -8.13144 -70.5476
rradius 38.8915
rwrist 13.8123
rhand -26.4516 11.9901
rfingers 7.12502
rthumb 0.109547 -17.9896
lclavicle 1.4064e-014 4.77083e-015
lhumerus 42.002 -3.00622 53.3088
lradius 103.543
lwrist -2.37989
lhand -36.5395 25.2625
lfingers 7.12502
lthumb -9.63034 55.0224
rfemur -10.4483 2.81459 10.0214
rtibia 24.6212
rfoot -15.3212 -9.69052
rtoes 1.90393
lfemur -1.43256 1.42216 -24.1578
ltibia 14.2638
lfoot -10.1308 6.6911
ltoes -11.7685
193
root 0.736905 17.9468 -0.707045 1.07393 -30.6087 2.21331
lowerback 1.67869 -1.67338 -4.83952
upperback -0.166478 -2.30961 2.50859
thorax -0.818071 -1.13096 5.36224
lowerneck -24.3329 1.30024 -10.3966
upperneck 8.58023 4.19161 5.19237
head 6.14839 2.12085 3.83916
rclavicle 4.11981e-014 4.77083e-015
rhumerus -34.9425 -7.97151 -70.5606
rradius 38.9506
rwrist 13.6724
rhand -26.4624 11.9978
rfingers 7.12502
rthumb 0.099113 -17.9819
lclavicle 4.11981e-014 4.77083e-015
lhumerus 42.3823 -2.69103 53.1179
lradius 103.372
lwrist -2.19196
lhand -36.7181 24.5601
lfingers 7.12502
lthumb -9.80268 54.3119
rfemur -10.4421 2.7949 10.0195
rtibia 24.6338
rfoot -15.2654 -9.6713
rtoes 1.55196
lfemur -1.39575 1.39832 -24.1705
ltibia 14.2502
lfoot -10.1559 6.72546
ltoes -11.9703
194
root 0.736364 17.9482 -0.708008 1.07367 -30.6045 2.24942
lowerback 1.74111 -1.68853 -4.899
upperback -0.203716 -2.33389 2.52123
thorax -0.885565 -1.13987 5.41275
lowerneck -24.1862 1.29232 -10.3299
upperneck 8.00418 4.16096 5.05364
head 5.9452 2.10879 3.76253
rclavicle -8.57259e-014 0
rhumerus -35.0039 -7.83891 -70.5473
rradius 38.9482
rwrist 13.641
rhand -26.4814 12.0263
rfingers 7.12502
rthumb 0.0807862 -17.9534
lclavicle -8.57259e-014 0
lhumerus 42.6852 -2.41626 52.8825
lradius 103.326
lwrist -2.10754
lhand -37.0037 24.5025
lfingers 7.12502
lthumb -10.0782 54.2411
rfemur -10.4743 2.77085 9.98251
rtibia 24.661
rfoot -15.225 -9.64893
rtoes 1.4601
lfemur -1.39356 1.29468 -24.2057
ltibia 14.1979
lfoot -10.1159 6.79641
ltoes -11.6999
195
root 0.73537 17.9496 -0.708525 1.13409 -30.587 2.24026
lowerback 1.73393 -1.71694 -4.90933
upperback -0.225408 -2.37181 2.53787
thorax -0.897894 -1.15794 5.43682
lowerneck -24.164 1.27572 -10.323
upperneck 7.57416 4.13134 5.053
head 5.8045 2.10486 3.74771
rclavicle 1.4561e-014 -1.59028e-015
rhumerus -34.9803 -7.81977 -70.5571
rradius 38.9202
rwrist 13.6966
rhand -26.449 11.9678
rfingers 7.12502
rthumb 0.112075 -18.0119
lclavicle 1.4561e-014 -1.59028e-015
lhumerus 43.0445 -2.11212 52.5337
lradius 103.44
lwrist -2.09113
lhand -37.0786 25.1976
lfingers 7.12502
lthumb -10.1505 54.9327
rfemur -10.524 2.75178 9.98422
rtibia 24.6685
rfoot -15.2907 -9.58151
rtoes 2.06795
lfemur -1.43152 1.26977 -24.1942
ltibia 14.1492
lfoot -10.0622 6.80271
ltoes -11.7067
196
root 0.734195 17.9489 -0.707365 1.13586 -30.5818 2.31892
lowerback 1.68177 -1.72923 -4.94441
upperback -0.196339 -2.38671 2.49659
thorax -0.837014 -1.1678 5.41113
lowerneck -24.37 1.23089 -10.4022
upperneck 7.3497 4.08621 5.27056
head 5.75989 2.10652 3.82654
rclavicle -5.11871e-014 -1.74931e-014
rhumerus -34.8857 -7.96117 -70.5616
rradius 38.8465
rwrist 13.8741
rhand -26.4618 12.0072
rfingers 7.12502
rthumb 0.0996901 -17.9725
lclavicle -5.11871e-014 -1.74931e-014
lhumerus 43.487 -1.78529 52.2276
lradius 103.501
lwrist -2.09183
lhand -36.9423 25.8684
lfingers 7.12502
lthumb -10.019 55.6099
rfemur -10.5599 2.71794 9.90422
rtibia 24.6777
rfoot -15.3198 -9.52957
rtoes 2.08208
lfemur -1.43689 1.16355 -24.2777
ltibia 14.0875
lfoot -10.0406 6.90179
ltoes -11.3799
197
root 0.733177 17.9485 -0.706122 1.14868 -30.5913 2.33931
lowerback 1.59086 -1.73485 -4.89681
upperback -0.0979802 -2.3889 2.44485
thorax -0.688317 -1.17603 5.32429
lowerneck -24.5793 1.1855 -10.3767
upperneck 6.93265 4.03004 5.32021
head 5.65976 2.09515 3.82815
rclavicle -3.94588e-014 2.06736e-014
rhumerus -34.7109 -8.09609 -70.5955
rradius 38.7438
rwrist 14.0444
rhand -26.5118 12.0715
rfingers 7.12502
rthumb 0.0513957 -17.9082
lclavicle -3.94588e-014 2.06736e-014
lhumerus 44.0578 -1.35601 51.9435
lradius 103.249
lwrist -2.31551
lhand -36.3929 26.0156
lfingers 7.12502
lthumb -9.48893 55.782
rfemur -10.5854 2.67035 9.88219
rtibia 24.6827
rfoot -15.3408 -9.47899
rtoes 2.14317
lfemur -1.42939 1.1721 -24.3069
ltibia 14.0328
lfoot -9.98963 6.94049
ltoes -11.6006
198
root 0.731819 17.9498 -0.706064 1.15137 -30.5872 2.34454
lowerback 1.54419 -1.7438 -4.87642
upperback -0.0208097 -2.39803 2.42528
thorax -0.583009 -1.18573 5.28883
lowerneck -24.7163 1.15655 -10.2727
upperneck 6.49164 3.98826 5.17941
head 5.54517 2.07579 3.75426
rclavicle -1.67973e-014 1.98785e-014
rhumerus -34.6328 -8.11744 -70.6075
rradius 38.7645
rwrist 14.1081
rhand -26.4858 12.1615
rfingers 7.12502
rthumb 0.0765635 -17.8182
lclavicle -1.67973e-014 1.98785e-014
lhumerus 44.6443 -0.91113 51.6644
lradius 102.878
lwrist -2.60647
lhand -35.5846 26.3329
lfingers 7.12502
lthumb -8.70898 56.1332
rfemur -10.5842 2.67606 9.87691
rtibia 24.6967
rfoot -15.4299 -9.45289
rtoes 2.60122
lfemur -1.40468 1.1772 -24.3106
ltibia 13.9749
lfoot -9.94457 6.95506
ltoes -11.7576
